<?xml version="1.0" encoding="UTF-8"?>
<svg xmlns="http://www.w3.org/2000/svg" viewBox="0 0 512 512">
  <rect width="512" height="512" rx="112" fill="#ffffff"/>
  <g transform="translate(11, 82) scale(1.045)">
    <path fill="#121823" d="M0,46.5v-15.9h11.9V6.9h22v23.8h13.8v15.9h-13.8v45c0,3.5.4,5.7,1.3,6.5.9.9,3.6,1.3,8.1,1.3s1.4,0,2.2,0c.8,0,1.5,0,2.2-.1v16.6l-10.5.4c-10.5.4-17.7-1.5-21.6-5.5-2.5-2.6-3.8-6.5-3.8-11.8v-52.4H0Z"/>
    <path fill="#121823" d="M116.8,30.4c4.3,1.8,7.8,4.6,10.5,8.4,2.3,3.2,3.8,6.5,4.3,9.8s.8,8.9.8,16.5v50h-22.7v-51.9c0-4.6-.8-8.3-2.3-11.1-2-4-5.8-5.9-11.5-5.9s-10.3,2-13.3,5.9-4.5,9.5-4.5,16.8v46.2h-22.3V.3h22.3v40.6c3.2-5,6.9-8.4,11.2-10.4s8.7-2.9,13.3-2.9,10,.9,14.3,2.7Z"/>
    <path fill="#121823" d="M200.5,31.6c5.9,2.7,10.9,6.9,14.7,12.6,3.5,5.1,5.8,10.9,6.8,17.6.6,3.9.8,9.6.7,16.9h-62c.4,8.5,3.3,14.5,8.9,18,3.4,2.1,7.5,3.2,12.3,3.2s9.2-1.3,12.4-3.9c1.7-1.4,3.3-3.4,4.6-5.9h22.7c-.6,5.1-3.4,10.2-8.2,15.4-7.6,8.3-18.3,12.4-32,12.4s-21.3-3.5-30-10.5c-8.7-7-13-18.3-13-34.1s3.9-26.1,11.7-33.9c7.8-7.9,18-11.8,30.4-11.8s14.1,1.3,20,4h0ZM167.2,50.8c-3.1,3.2-5.1,7.6-5.9,13.2h38.4c-.4-5.9-2.4-10.4-5.9-13.5-3.6-3.1-7.9-4.6-13.2-4.6s-10.1,1.6-13.3,4.9h0Z"/>
    <path fill="#121823" d="M56,127.9c.3,0,.9,0,1.9.1v22.8c-1.4-.2-2.7-.3-3.8-.3s-2,0-2.7,0c-9,0-15,2.9-18,8.8-1.7,3.3-2.6,8.3-2.6,15.2v40.7H8.5v-85.2h21.2v14.8c3.4-5.7,6.4-9.6,9-11.6,4.2-3.5,9.6-5.2,16.2-5.2s.8,0,1,0h0Z"/>
    <path fill="#121823" d="M88.9,129.9v51.3c0,4.8.6,8.5,1.7,10.9,2,4.3,6,6.5,11.9,6.5s12.8-3.1,15.6-9.2c1.4-3.3,2.2-7.7,2.2-13.2v-46.3h22.6v85.2h-21.6v-12c-.2.3-.7,1-1.6,2.3-.8,1.3-1.8,2.4-3,3.4-3.5,3.1-6.8,5.3-10.1,6.4-3.2,1.1-7.1,1.7-11.4,1.7-12.6,0-21-4.5-25.4-13.6-2.4-5-3.7-12.4-3.7-22.1v-51.3h22.8Z"/>
    <path fill="#121823" d="M220,134.8c5.6,4.6,8.4,12.2,8.4,22.9v57.3h-22.8v-51.8c0-4.5-.6-7.9-1.8-10.3-2.2-4.4-6.3-6.6-12.4-6.6s-12.6,3.2-15.4,9.6c-1.4,3.4-2.2,7.7-2.2,13v46.1h-22.3v-85h21.6v12.4c2.9-4.4,5.6-7.5,8.1-9.4,4.6-3.4,10.4-5.2,17.4-5.2s15.9,2.3,21.5,6.9h0Z"/>
    <path fill="#121823" d="M80.4,239c6.9,7.3,10.4,18.1,10.4,32.3s-3.4,26.4-10.2,34.3-15.5,11.8-26.2,11.8-12.5-1.7-17-5.1c-2.5-1.9-4.9-4.6-7.2-8.2v44.4H8.1v-118.7h21.3v12.6c2.4-3.7,5-6.6,7.7-8.8,5-3.8,10.9-5.7,17.8-5.7,10,0,18.5,3.7,25.4,11h0ZM63.3,255c-3-5.1-7.9-7.6-14.7-7.6s-13.8,3.8-16.8,11.5c-1.6,4.1-2.4,9.2-2.4,15.5,0,9.9,2.7,16.9,8,20.9,3.2,2.3,6.9,3.5,11.2,3.5,6.3,0,11-2.4,14.3-7.2,3.3-4.8,4.9-11.2,4.9-19.1s-1.5-12.4-4.5-17.4h0Z"/>
    <path fill="#121823" d="M145.1,227.9c.3,0,.9,0,1.9.1v22.8c-1.4-.2-2.7-.3-3.8-.3s-2,0-2.7,0c-9,0-15,2.9-18.1,8.8-1.7,3.3-2.6,8.3-2.6,15.2v40.7h-22.4v-85.2h21.2v14.8c3.4-5.7,6.4-9.6,9-11.6,4.2-3.5,9.6-5.2,16.2-5.2s.8,0,1.1,0h0Z"/>
    <path fill="#121823" d="M224.7,304.6c-7.2,8.9-18.1,13.3-32.7,13.3s-25.6-4.4-32.7-13.3-10.8-19.5-10.8-32,3.6-22.9,10.8-31.9,18.1-13.5,32.7-13.5,25.6,4.5,32.7,13.5c7.2,9,10.8,19.6,10.8,31.9s-3.6,23.2-10.8,32ZM206.9,292.3c3.5-4.6,5.2-11.2,5.2-19.7s-1.8-15.1-5.2-19.7c-3.5-4.6-8.5-6.9-15-6.9s-11.5,2.3-15,6.9-5.3,11.2-5.3,19.7,1.8,15.1,5.3,19.7,8.5,6.9,15,6.9,11.5-2.3,15-6.9Z"/>
    <path fill="#121823" d="M232,331.4c1.2.1,2.1.2,2.7.2.5,0,1,0,1.4,0,2.2,0,3.8-.5,5-1.6,1.1-1.1,1.7-3.1,1.7-6.2v-93.5h22.3v93.9c0,8.6-1.7,15-5.1,19.1-3.4,4.1-10,6.2-19.9,6.2s-1.7,0-3,0-3-.1-5-.2v-17.8h0ZM265,219.7h-22.3v-20.6h22.3v20.6Z"/>
    <path fill="#121823" d="M333.3,231.6c5.9,2.7,10.9,6.9,14.7,12.6,3.5,5.1,5.8,10.9,6.8,17.6.6,3.9.8,9.5.7,16.9h-62c.4,8.5,3.3,14.5,8.9,18,3.4,2.1,7.5,3.2,12.3,3.2s9.2-1.3,12.4-3.9c1.7-1.4,3.3-3.4,4.6-5.9h22.7c-.6,5-3.4,10.2-8.2,15.4-7.6,8.3-18.3,12.4-32,12.4s-21.3-3.5-30-10.5c-8.7-7-13-18.4-13-34.1s3.9-26.1,11.7-33.9,18-11.8,30.5-11.8,14.1,1.3,20,4h0ZM300,250.8c-3.1,3.2-5.1,7.6-5.9,13.2h38.4c-.4-5.9-2.4-10.4-5.9-13.5-3.5-3.1-8-4.6-13.2-4.6s-10.1,1.6-13.3,4.9h0Z"/>
    <path fill="#121823" d="M416.9,260.4c-.4-3.2-1.5-6-3.2-8.6-2.5-3.4-6.4-5.2-11.7-5.2-7.5,0-12.7,3.7-15.4,11.2-1.5,4-2.2,9.2-2.2,15.7s.7,11.2,2.2,15c2.7,7.1,7.7,10.6,15,10.6s8.9-1.4,11.1-4.2,3.5-6.5,4-10.9h22.7c-.5,6.8-3,13.2-7.4,19.2-7,9.7-17.3,14.6-31,14.6s-23.8-4.1-30.3-12.2-9.7-18.7-9.7-31.6,3.6-26,10.7-34.1,17-12.2,29.6-12.2,19.4,2.4,26.2,7.2c6.8,4.8,10.8,13.3,12.1,25.4h-22.8,0Z"/>
    <path fill="#121823" d="M442.6,246.5v-15.9h11.9v-23.8h22v23.8h13.8v15.9h-13.8v45c0,3.5.4,5.7,1.3,6.5.9.9,3.6,1.3,8.1,1.3s1.4,0,2.1,0c.8,0,1.5,0,2.2-.1v16.6l-10.5.4c-10.5.4-17.7-1.5-21.6-5.5-2.5-2.5-3.8-6.5-3.8-11.8v-52.4h-11.9Z"/>
  </g>
</svg>
