<?xml version="1.0" encoding="UTF-8"?>
<svg id="Layer_1" data-name="Layer 1" xmlns="http://www.w3.org/2000/svg" viewBox="0 0 490.29 349.41">
  <defs>
    <style>
      .cls-1 {
        fill: #fff;
      }
    </style>
  </defs>
  <path class="cls-1" d="M0,46.52v-15.86h11.88V6.91h22.03v23.75h13.83v15.86h-13.83v45c0,3.49.44,5.66,1.33,6.52.88.86,3.59,1.29,8.12,1.29.68,0,1.39-.01,2.15-.04.75-.03,1.5-.06,2.23-.12v16.64l-10.55.39c-10.52.36-17.71-1.46-21.56-5.47-2.5-2.55-3.75-6.48-3.75-11.8v-52.42H0Z"/>
  <path class="cls-1" d="M116.83,30.35c4.28,1.82,7.79,4.61,10.54,8.37,2.33,3.18,3.76,6.45,4.28,9.81s.78,8.85.78,16.46v50.04h-22.73v-51.86c0-4.59-.78-8.29-2.33-11.11-2.02-3.96-5.84-5.94-11.48-5.94s-10.28,1.97-13.3,5.91-4.54,9.55-4.54,16.85v46.15h-22.27V.27h22.27v40.62c3.22-4.95,6.94-8.4,11.16-10.35s8.67-2.93,13.34-2.93c5.24,0,10,.91,14.28,2.74Z"/>
  <path class="cls-1" d="M200.54,31.61c5.94,2.66,10.85,6.86,14.72,12.6,3.49,5.06,5.75,10.93,6.79,17.61.6,3.91.84,9.55.73,16.9h-62.02c.35,8.54,3.31,14.53,8.91,17.97,3.4,2.14,7.49,3.2,12.28,3.2,5.07,0,9.19-1.3,12.36-3.91,1.73-1.41,3.26-3.36,4.58-5.86h22.73c-.6,5.05-3.35,10.18-8.25,15.39-7.63,8.28-18.31,12.42-32.04,12.42-11.33,0-21.33-3.49-30-10.48-8.66-6.98-12.99-18.35-12.99-34.09,0-14.75,3.91-26.06,11.73-33.93,7.82-7.87,17.97-11.81,30.45-11.81,7.41,0,14.09,1.33,20.03,3.99ZM167.23,50.84c-3.15,3.24-5.12,7.64-5.93,13.18h38.36c-.41-5.91-2.38-10.4-5.93-13.46-3.55-3.06-7.95-4.59-13.21-4.59-5.72,0-10.15,1.62-13.29,4.87Z"/>
  <path class="cls-1" d="M56.05,127.89c.29.03.92.07,1.91.12v22.81c-1.41-.16-2.66-.26-3.75-.31-1.09-.05-1.98-.08-2.66-.08-8.96,0-14.97,2.92-18.05,8.75-1.72,3.28-2.58,8.33-2.58,15.16v40.7H8.52v-85.16h21.25v14.84c3.44-5.68,6.43-9.56,8.98-11.64,4.17-3.49,9.58-5.23,16.25-5.23.42,0,.77.01,1.05.04Z"/>
  <path class="cls-1" d="M88.88,129.88v51.33c0,4.84.57,8.49,1.71,10.94,2.02,4.32,5.99,6.48,11.89,6.48,7.57,0,12.75-3.07,15.55-9.22,1.45-3.33,2.18-7.73,2.18-13.2v-46.33h22.58v85.16h-21.64v-12.03c-.21.26-.73,1.04-1.56,2.34-.83,1.3-1.82,2.45-2.96,3.44-3.48,3.12-6.84,5.26-10.09,6.41-3.25,1.15-7.05,1.72-11.41,1.72-12.57,0-21.03-4.53-25.4-13.59-2.44-5-3.66-12.37-3.66-22.11v-51.33h22.81Z"/>
  <path class="cls-1" d="M219.98,134.77c5.58,4.61,8.36,12.25,8.36,22.93v57.34h-22.81v-51.8c0-4.48-.59-7.92-1.78-10.31-2.17-4.38-6.31-6.56-12.41-6.56-7.5,0-12.64,3.2-15.43,9.61-1.45,3.39-2.17,7.71-2.17,12.97v46.09h-22.27v-85h21.56v12.42c2.85-4.38,5.55-7.53,8.09-9.45,4.56-3.44,10.35-5.16,17.35-5.16,8.76,0,15.93,2.3,21.51,6.91Z"/>
  <path class="cls-1" d="M80.36,239.02c6.95,7.34,10.42,18.12,10.42,32.34,0,15-3.39,26.43-10.18,34.3-6.79,7.87-15.53,11.8-26.22,11.8-6.82,0-12.48-1.69-16.98-5.08-2.46-1.88-4.88-4.61-7.23-8.2v44.38H8.12v-118.67h21.33v12.58c2.41-3.7,4.98-6.61,7.71-8.75,4.98-3.8,10.9-5.7,17.77-5.7,10.01,0,18.49,3.67,25.43,11.02ZM63.27,255.04c-3.03-5.05-7.93-7.58-14.72-7.58-8.16,0-13.76,3.83-16.81,11.48-1.58,4.06-2.37,9.22-2.37,15.47,0,9.9,2.66,16.85,7.96,20.86,3.16,2.34,6.89,3.52,11.21,3.52,6.26,0,11.04-2.4,14.33-7.19,3.29-4.79,4.93-11.17,4.93-19.14,0-6.56-1.51-12.37-4.54-17.42Z"/>
  <path class="cls-1" d="M145.15,227.89c.29.03.92.07,1.91.12v22.81c-1.41-.16-2.66-.26-3.75-.31-1.09-.05-1.98-.08-2.66-.08-8.96,0-14.97,2.92-18.05,8.75-1.72,3.28-2.58,8.33-2.58,15.16v40.7h-22.42v-85.16h21.25v14.84c3.44-5.68,6.43-9.56,8.98-11.64,4.17-3.49,9.58-5.23,16.25-5.23.42,0,.77.01,1.05.04Z"/>
  <path class="cls-1" d="M224.73,304.62c-7.19,8.87-18.1,13.31-32.73,13.31s-25.55-4.44-32.73-13.31-10.78-19.55-10.78-32.04,3.59-22.92,10.78-31.92c7.19-9,18.1-13.5,32.73-13.5s25.55,4.5,32.73,13.5c7.19,9,10.78,19.64,10.78,31.92s-3.59,23.17-10.78,32.04ZM206.91,292.32c3.49-4.63,5.23-11.21,5.23-19.74s-1.75-15.1-5.23-19.7c-3.49-4.6-8.49-6.9-15-6.9s-11.52,2.3-15.04,6.9-5.27,11.17-5.27,19.7,1.76,15.11,5.27,19.74,8.53,6.94,15.04,6.94,11.51-2.31,15-6.94Z"/>
  <path class="cls-1" d="M232,331.37c1.25.1,2.13.17,2.66.2.52.03.99.04,1.41.04,2.19,0,3.84-.53,4.96-1.6,1.12-1.07,1.68-3.14,1.68-6.21v-93.52h22.27v93.91c0,8.59-1.69,14.95-5.08,19.06-3.39,4.11-10.03,6.17-19.92,6.17-.68,0-1.68-.03-3.01-.08-1.33-.05-2.98-.1-4.96-.16v-17.81ZM264.97,219.73h-22.27v-20.55h22.27v20.55Z"/>
  <path class="cls-1" d="M333.31,231.61c5.94,2.66,10.85,6.86,14.72,12.6,3.49,5.06,5.75,10.93,6.79,17.61.6,3.91.84,9.55.73,16.9h-62.02c.35,8.54,3.31,14.53,8.91,17.97,3.4,2.14,7.49,3.2,12.28,3.2,5.07,0,9.19-1.3,12.36-3.91,1.73-1.41,3.26-3.36,4.58-5.86h22.73c-.6,5.05-3.35,10.18-8.25,15.39-7.63,8.28-18.31,12.42-32.04,12.42-11.33,0-21.33-3.49-30-10.48-8.66-6.98-12.99-18.35-12.99-34.09,0-14.75,3.91-26.06,11.73-33.93s17.97-11.81,30.45-11.81c7.41,0,14.09,1.33,20.03,3.99ZM300,250.84c-3.15,3.24-5.12,7.64-5.93,13.18h38.36c-.41-5.91-2.38-10.4-5.93-13.46-3.55-3.06-7.95-4.59-13.21-4.59-5.72,0-10.15,1.62-13.29,4.87Z"/>
  <path class="cls-1" d="M416.94,260.43c-.42-3.18-1.49-6.04-3.21-8.59-2.51-3.44-6.4-5.16-11.67-5.16-7.52,0-12.66,3.72-15.43,11.17-1.46,3.95-2.19,9.2-2.19,15.74s.73,11.25,2.19,15.04c2.66,7.08,7.67,10.62,15.04,10.62,5.22,0,8.93-1.41,11.12-4.22s3.52-6.46,3.99-10.94h22.73c-.52,6.77-2.97,13.18-7.35,19.22-6.99,9.74-17.33,14.61-31.05,14.61s-23.8-4.06-30.26-12.19-9.7-18.66-9.7-31.6c0-14.61,3.57-25.97,10.71-34.1s17-12.19,29.56-12.19c10.69,0,19.43,2.4,26.24,7.19,6.8,4.79,10.83,13.26,12.08,25.39h-22.81Z"/>
  <path class="cls-1" d="M442.56,246.52v-15.86h11.88v-23.75h22.03v23.75h13.83v15.86h-13.83v45c0,3.49.44,5.66,1.33,6.52.88.86,3.59,1.29,8.12,1.29.68,0,1.39-.01,2.15-.04.75-.03,1.5-.06,2.23-.12v16.64l-10.55.39c-10.52.36-17.71-1.46-21.56-5.47-2.5-2.55-3.75-6.48-3.75-11.8v-52.42h-11.88Z"/>
</svg>