<svg xmlns="http://www.w3.org/2000/svg" xmlns:xlink="http://www.w3.org/1999/xlink" width="500" zoomAndPan="magnify" viewBox="0 0 375 374.999991" height="500" preserveAspectRatio="xMidYMid meet" version="1.0"><defs><g/><clipPath id="1fc56d265e"><rect x="0" width="331" y="0" height="277"/></clipPath></defs><rect x="-37.5" width="450" fill="#ffffff" y="-37.499999" height="449.999989" fill-opacity="1"/><rect x="-37.5" width="450" fill="#ffffff" y="-37.499999" height="449.999989" fill-opacity="1"/><g transform="matrix(1, 0, 0, 1, 23, 22)"><g clip-path="url(#1fc56d265e)"><g fill="#ffffff" fill-opacity="1"><g transform="translate(0.74219, 109.384005)"><g><path d="M 37.671875 -13.015625 L 41.234375 -2.875 C 39.753906 -1.65625 37.890625 -0.695312 35.640625 0 C 33.398438 0.695312 30.859375 1.046875 28.015625 1.046875 C 22.109375 1.046875 17.617188 -0.5625 14.546875 -3.78125 C 11.484375 -7 9.953125 -11.679688 9.953125 -17.828125 L 9.953125 -43.765625 L 1.640625 -43.765625 L 1.640625 -54.65625 L 9.953125 -54.65625 L 9.953125 -65.296875 L 23.671875 -67.53125 L 23.671875 -54.65625 L 39.15625 -54.65625 L 39.15625 -43.765625 L 23.671875 -43.765625 L 23.671875 -18.8125 C 23.671875 -16.101562 24.226562 -14.128906 25.34375 -12.890625 C 26.46875 -11.660156 28.101562 -11.046875 30.25 -11.046875 C 32.6875 -11.046875 34.816406 -11.703125 36.640625 -13.015625 Z M 37.671875 -13.015625 "/></g></g></g><g fill="#ffffff" fill-opacity="1"><g transform="translate(38.402089, 109.384005)"><g><path d="M 7.875 0 L 7.875 -76.53125 L 21.578125 -76.53125 L 21.578125 -47.484375 L 22.625 -47.28125 C 24.4375 -49.957031 26.660156 -52.019531 29.296875 -53.46875 C 31.941406 -54.914062 35.128906 -55.640625 38.859375 -55.640625 C 50.910156 -55.640625 56.9375 -48.8125 56.9375 -35.15625 L 56.9375 0 L 43.21875 0 L 43.21875 -33.421875 C 43.21875 -37.148438 42.472656 -39.851562 40.984375 -41.53125 C 39.503906 -43.21875 37.195312 -44.0625 34.0625 -44.0625 C 30.226562 -44.0625 27.1875 -42.78125 24.9375 -40.21875 C 22.695312 -37.664062 21.578125 -33.679688 21.578125 -28.265625 L 21.578125 0 Z M 7.875 0 "/></g></g></g><g fill="#ffffff" fill-opacity="1"><g transform="translate(97.596826, 109.384005)"><g><path d="M 53.96875 -24.203125 L 18.859375 -24.203125 C 19.253906 -19.453125 20.609375 -15.992188 22.921875 -13.828125 C 25.234375 -11.671875 28.382812 -10.59375 32.375 -10.59375 C 35.507812 -10.59375 38.050781 -11.175781 40 -12.34375 C 41.945312 -13.519531 43.515625 -15.296875 44.703125 -17.671875 L 45.75 -17.671875 L 54.859375 -11.828125 C 53.078125 -8.003906 50.382812 -4.898438 46.78125 -2.515625 C 43.1875 -0.140625 38.382812 1.046875 32.375 1.046875 C 26.726562 1.046875 21.847656 -0.0234375 17.734375 -2.171875 C 13.628906 -4.316406 10.460938 -7.507812 8.234375 -11.75 C 6.015625 -16 4.90625 -21.175781 4.90625 -27.28125 C 4.90625 -33.476562 6.078125 -38.707031 8.421875 -42.96875 C 10.765625 -47.226562 13.929688 -50.40625 17.921875 -52.5 C 21.910156 -54.59375 26.398438 -55.640625 31.390625 -55.640625 C 39.109375 -55.640625 45.019531 -53.59375 49.125 -49.5 C 53.238281 -45.414062 55.296875 -39.410156 55.296875 -31.484375 C 55.296875 -28.609375 55.195312 -26.378906 55 -24.796875 Z M 42.1875 -33.078125 C 42.050781 -37.234375 41.082031 -40.257812 39.28125 -42.15625 C 37.476562 -44.050781 34.847656 -45 31.390625 -45 C 24.453125 -45 20.375 -41.023438 19.15625 -33.078125 Z M 42.1875 -33.078125 "/></g></g></g><g fill="#ffffff" fill-opacity="1"><g transform="translate(0.74219, 177.985131)"><g><path d="M 7.875 0 L 7.875 -54.609375 L 21.1875 -54.609375 L 21.1875 -46.484375 L 22.234375 -46.296875 C 23.546875 -49.328125 25.273438 -51.550781 27.421875 -52.96875 C 29.566406 -54.382812 32.175781 -55.09375 35.25 -55.09375 C 38.351562 -55.09375 40.710938 -54.566406 42.328125 -53.515625 L 40 -41.6875 L 38.96875 -41.484375 C 38.070312 -41.847656 37.210938 -42.113281 36.390625 -42.28125 C 35.566406 -42.445312 34.5625 -42.53125 33.375 -42.53125 C 29.539062 -42.53125 26.613281 -41.179688 24.59375 -38.484375 C 22.582031 -35.796875 21.578125 -31.484375 21.578125 -25.546875 L 21.578125 0 Z M 7.875 0 "/></g></g></g><g fill="#ffffff" fill-opacity="1"><g transform="translate(38.798133, 177.985131)"><g><path d="M 25 1.046875 C 18.863281 1.046875 14.332031 -0.628906 11.40625 -3.984375 C 8.488281 -7.335938 7.03125 -12.148438 7.03125 -18.421875 L 7.03125 -54.609375 L 20.75 -54.609375 L 20.75 -20.15625 C 20.75 -16.820312 21.460938 -14.382812 22.890625 -12.84375 C 24.328125 -11.3125 26.550781 -10.546875 29.5625 -10.546875 C 33.351562 -10.546875 36.304688 -11.789062 38.421875 -14.28125 C 40.535156 -16.769531 41.59375 -20.691406 41.59375 -26.046875 L 41.59375 -54.609375 L 55.296875 -54.609375 L 55.296875 0 L 42.125 0 L 42.125 -8.015625 L 41.09375 -8.265625 C 39.34375 -5.128906 37.203125 -2.789062 34.671875 -1.25 C 32.148438 0.28125 28.925781 1.046875 25 1.046875 Z M 25 1.046875 "/></g></g></g><g fill="#ffffff" fill-opacity="1"><g transform="translate(97.200782, 177.985131)"><g><path d="M 7.875 0 L 7.875 -54.609375 L 21.046875 -54.609375 L 21.046875 -46.59375 L 22.078125 -46.34375 C 25.472656 -52.539062 30.984375 -55.640625 38.609375 -55.640625 C 44.921875 -55.640625 49.550781 -53.921875 52.5 -50.484375 C 55.457031 -47.054688 56.9375 -42.0625 56.9375 -35.5 L 56.9375 0 L 43.21875 0 L 43.21875 -33.8125 C 43.21875 -37.445312 42.488281 -40.0625 41.03125 -41.65625 C 39.582031 -43.257812 37.257812 -44.0625 34.0625 -44.0625 C 30.132812 -44.0625 27.070312 -42.789062 24.875 -40.25 C 22.675781 -37.707031 21.578125 -33.710938 21.578125 -28.265625 L 21.578125 0 Z M 7.875 0 "/></g></g></g><g fill="#ffffff" fill-opacity="1"><g transform="translate(0.74219, 246.586256)"><g><path d="M 7.875 22.125 L 7.875 -54.609375 L 21.578125 -54.609375 L 21.578125 -47.484375 L 22.625 -47.28125 C 24.238281 -50.050781 26.398438 -52.132812 29.109375 -53.53125 C 31.816406 -54.9375 34.984375 -55.640625 38.609375 -55.640625 C 43.003906 -55.640625 46.84375 -54.597656 50.125 -52.515625 C 53.40625 -50.441406 55.960938 -47.285156 57.796875 -43.046875 C 59.628906 -38.804688 60.546875 -33.550781 60.546875 -27.28125 C 60.546875 -21.039062 59.578125 -15.804688 57.640625 -11.578125 C 55.710938 -7.359375 53.03125 -4.195312 49.59375 -2.09375 C 46.164062 0 42.207031 1.046875 37.71875 1.046875 C 34.320312 1.046875 31.382812 0.476562 28.90625 -0.65625 C 26.4375 -1.800781 24.34375 -3.578125 22.625 -5.984375 L 21.578125 -5.796875 L 21.578125 22.125 Z M 33.90625 -10.59375 C 38 -10.59375 41.101562 -11.925781 43.21875 -14.59375 C 45.332031 -17.269531 46.390625 -21.5 46.390625 -27.28125 C 46.390625 -33.050781 45.332031 -37.28125 43.21875 -39.96875 C 41.101562 -42.664062 38 -44.015625 33.90625 -44.015625 C 30.082031 -44.015625 27.046875 -42.625 24.796875 -39.84375 C 22.554688 -37.070312 21.4375 -32.882812 21.4375 -27.28125 C 21.4375 -21.695312 22.554688 -17.519531 24.796875 -14.75 C 27.046875 -11.976562 30.082031 -10.59375 33.90625 -10.59375 Z M 33.90625 -10.59375 "/></g></g></g><g fill="#ffffff" fill-opacity="1"><g transform="translate(61.372595, 246.586256)"><g><path d="M 7.875 0 L 7.875 -54.609375 L 21.1875 -54.609375 L 21.1875 -46.484375 L 22.234375 -46.296875 C 23.546875 -49.328125 25.273438 -51.550781 27.421875 -52.96875 C 29.566406 -54.382812 32.175781 -55.09375 35.25 -55.09375 C 38.351562 -55.09375 40.710938 -54.566406 42.328125 -53.515625 L 40 -41.6875 L 38.96875 -41.484375 C 38.070312 -41.847656 37.210938 -42.113281 36.390625 -42.28125 C 35.566406 -42.445312 34.5625 -42.53125 33.375 -42.53125 C 29.539062 -42.53125 26.613281 -41.179688 24.59375 -38.484375 C 22.582031 -35.796875 21.578125 -31.484375 21.578125 -25.546875 L 21.578125 0 Z M 7.875 0 "/></g></g></g><g fill="#ffffff" fill-opacity="1"><g transform="translate(97.992754, 246.586256)"><g><path d="M 31.734375 1.046875 C 26.390625 1.046875 21.691406 -0.0507812 17.640625 -2.25 C 13.597656 -4.445312 10.460938 -7.664062 8.234375 -11.90625 C 6.015625 -16.144531 4.90625 -21.269531 4.90625 -27.28125 C 4.90625 -33.28125 6.015625 -38.410156 8.234375 -42.671875 C 10.460938 -46.929688 13.597656 -50.15625 17.640625 -52.34375 C 21.691406 -54.539062 26.390625 -55.640625 31.734375 -55.640625 C 37.078125 -55.640625 41.769531 -54.539062 45.8125 -52.34375 C 49.863281 -50.15625 53.007812 -46.929688 55.25 -42.671875 C 57.488281 -38.410156 58.609375 -33.28125 58.609375 -27.28125 C 58.609375 -21.269531 57.488281 -16.144531 55.25 -11.90625 C 53.007812 -7.664062 49.863281 -4.445312 45.8125 -2.25 C 41.769531 -0.0507812 37.078125 1.046875 31.734375 1.046875 Z M 31.734375 -10.59375 C 40.210938 -10.59375 44.453125 -16.15625 44.453125 -27.28125 C 44.453125 -33.050781 43.363281 -37.28125 41.1875 -39.96875 C 39.007812 -42.664062 35.859375 -44.015625 31.734375 -44.015625 C 23.253906 -44.015625 19.015625 -38.4375 19.015625 -27.28125 C 19.015625 -16.15625 23.253906 -10.59375 31.734375 -10.59375 Z M 31.734375 -10.59375 "/></g></g></g><g fill="#ffffff" fill-opacity="1"><g transform="translate(156.692436, 246.586256)"><g><path d="M 14.703125 -61.140625 C 12.222656 -61.140625 10.207031 -61.890625 8.65625 -63.390625 C 7.113281 -64.890625 6.34375 -66.832031 6.34375 -69.21875 C 6.34375 -71.550781 7.113281 -73.46875 8.65625 -74.96875 C 10.207031 -76.476562 12.222656 -77.234375 14.703125 -77.234375 C 16.347656 -77.234375 17.816406 -76.882812 19.109375 -76.1875 C 20.398438 -75.5 21.398438 -74.550781 22.109375 -73.34375 C 22.816406 -72.132812 23.171875 -70.757812 23.171875 -69.21875 C 23.171875 -67.664062 22.816406 -66.273438 22.109375 -65.046875 C 21.398438 -63.828125 20.398438 -62.867188 19.109375 -62.171875 C 17.816406 -61.484375 16.347656 -61.140625 14.703125 -61.140625 Z M 4.25 23.171875 C 0.226562 23.171875 -3.003906 22.640625 -5.453125 21.578125 L -3.765625 10.796875 L -2.828125 10.5 C -1.503906 11.125 0.046875 11.4375 1.828125 11.4375 C 5.859375 11.4375 7.875 9.0625 7.875 4.3125 L 7.875 -54.609375 L 21.578125 -54.609375 L 21.578125 3.90625 C 21.578125 10.28125 20.109375 15.082031 17.171875 18.3125 C 14.234375 21.550781 9.925781 23.171875 4.25 23.171875 Z M 4.25 23.171875 "/></g></g></g><g fill="#ffffff" fill-opacity="1"><g transform="translate(181.332403, 246.586256)"><g><path d="M 53.96875 -24.203125 L 18.859375 -24.203125 C 19.253906 -19.453125 20.609375 -15.992188 22.921875 -13.828125 C 25.234375 -11.671875 28.382812 -10.59375 32.375 -10.59375 C 35.507812 -10.59375 38.050781 -11.175781 40 -12.34375 C 41.945312 -13.519531 43.515625 -15.296875 44.703125 -17.671875 L 45.75 -17.671875 L 54.859375 -11.828125 C 53.078125 -8.003906 50.382812 -4.898438 46.78125 -2.515625 C 43.1875 -0.140625 38.382812 1.046875 32.375 1.046875 C 26.726562 1.046875 21.847656 -0.0234375 17.734375 -2.171875 C 13.628906 -4.316406 10.460938 -7.507812 8.234375 -11.75 C 6.015625 -16 4.90625 -21.175781 4.90625 -27.28125 C 4.90625 -33.476562 6.078125 -38.707031 8.421875 -42.96875 C 10.765625 -47.226562 13.929688 -50.40625 17.921875 -52.5 C 21.910156 -54.59375 26.398438 -55.640625 31.390625 -55.640625 C 39.109375 -55.640625 45.019531 -53.59375 49.125 -49.5 C 53.238281 -45.414062 55.296875 -39.410156 55.296875 -31.484375 C 55.296875 -28.609375 55.195312 -26.378906 55 -24.796875 Z M 42.1875 -33.078125 C 42.050781 -37.234375 41.082031 -40.257812 39.28125 -42.15625 C 37.476562 -44.050781 34.847656 -45 31.390625 -45 C 24.453125 -45 20.375 -41.023438 19.15625 -33.078125 Z M 42.1875 -33.078125 "/></g></g></g><g fill="#ffffff" fill-opacity="1"><g transform="translate(235.923148, 246.586256)"><g><path d="M 31.828125 1.046875 C 26.546875 1.046875 21.875 -0.0507812 17.8125 -2.25 C 13.757812 -4.445312 10.59375 -7.671875 8.3125 -11.921875 C 6.039062 -16.179688 4.90625 -21.300781 4.90625 -27.28125 C 4.90625 -33.28125 6.039062 -38.410156 8.3125 -42.671875 C 10.59375 -46.929688 13.742188 -50.15625 17.765625 -52.34375 C 21.796875 -54.539062 26.398438 -55.640625 31.578125 -55.640625 C 43.097656 -55.640625 50.476562 -51.46875 53.71875 -43.125 L 44.3125 -36.390625 L 43.265625 -36.390625 C 42.148438 -38.960938 40.691406 -40.875 38.890625 -42.125 C 37.085938 -43.382812 34.648438 -44.015625 31.578125 -44.015625 C 27.617188 -44.015625 24.535156 -42.644531 22.328125 -39.90625 C 20.117188 -37.164062 19.015625 -32.957031 19.015625 -27.28125 C 19.015625 -21.664062 20.132812 -17.476562 22.375 -14.71875 C 24.625 -11.96875 27.773438 -10.59375 31.828125 -10.59375 C 34.796875 -10.59375 37.3125 -11.390625 39.375 -12.984375 C 41.445312 -14.585938 42.925781 -16.894531 43.8125 -19.90625 L 44.859375 -20 L 54.609375 -14.65625 C 53.222656 -10.03125 50.65625 -6.253906 46.90625 -3.328125 C 43.15625 -0.410156 38.128906 1.046875 31.828125 1.046875 Z M 31.828125 1.046875 "/></g></g></g><g fill="#ffffff" fill-opacity="1"><g transform="translate(287.444559, 246.586256)"><g><path d="M 37.671875 -13.015625 L 41.234375 -2.875 C 39.753906 -1.65625 37.890625 -0.695312 35.640625 0 C 33.398438 0.695312 30.859375 1.046875 28.015625 1.046875 C 22.109375 1.046875 17.617188 -0.5625 14.546875 -3.78125 C 11.484375 -7 9.953125 -11.679688 9.953125 -17.828125 L 9.953125 -43.765625 L 1.640625 -43.765625 L 1.640625 -54.65625 L 9.953125 -54.65625 L 9.953125 -65.296875 L 23.671875 -67.53125 L 23.671875 -54.65625 L 39.15625 -54.65625 L 39.15625 -43.765625 L 23.671875 -43.765625 L 23.671875 -18.8125 C 23.671875 -16.101562 24.226562 -14.128906 25.34375 -12.890625 C 26.46875 -11.660156 28.101562 -11.046875 30.25 -11.046875 C 32.6875 -11.046875 34.816406 -11.703125 36.640625 -13.015625 Z M 37.671875 -13.015625 "/></g></g></g></g></g></svg>