<?xml version="1.0" encoding="UTF-8"?>
<svg id="Layer_1" data-name="Layer 1" xmlns="http://www.w3.org/2000/svg" viewBox="0 0 595.28 841.89">
  <defs>
    <style>
      .cls-1 {
        fill: #fff;
      }
    </style>
  </defs>
  <path class="cls-1" d="M86.26,152.01c0,.96-.16,1.6-.96,1.92-4.32,1.6-8.32,2.24-13.6,2.24-13.12,0-20.96-6.4-20.96-22.24v-42.08h-10.08c-.8-.16-1.12-.48-1.12-1.44v-13.44c0-.96.32-1.28,1.28-1.28h10.08c.16-5.6.8-15.68,1.6-19.68.16-.8.48-1.28,1.28-1.44l16.16-2.24c.8-.16,1.12,0,1.12.8-.48,5.28-.8,14.72-.8,22.56h15.52c.8,0,1.12.32,1.12,1.12v13.92c0,.8-.32,1.12-1.12,1.12h-15.68v37.92c0,7.04,2.24,10.4,9.12,10.4,2.08,0,3.84-.16,6.08-.64.48-.16.96,0,.96.96v11.52Z"/>
  <path class="cls-1" d="M113.29,153.45c0,.8-.16,1.12-1.12,1.12h-16.96c-.96,0-1.28-.48-1.28-1.28V41.77c0-.64.32-1.12,1.28-1.12h16.96c.96,0,1.12.32,1.12,1.12v39.68c6.08-4.48,12.8-7.36,21.92-7.36,12.16,0,26.72,6.08,26.72,31.68v47.36c0,1.12-.48,1.44-1.28,1.44h-16.64c-.96,0-1.44-.48-1.44-1.44v-45.44c0-10.72-4.64-16.8-13.92-16.8-5.92,0-11.2,1.92-15.36,5.6v56.96Z"/>
  <path class="cls-1" d="M187.85,119.53c.48,11.2,7.84,20.16,24.16,20.16,7.2,0,13.76-1.28,19.84-3.84.48-.32.96-.16.96.64v13.28c0,.96-.32,1.44-.96,1.76-6.08,2.88-13.12,4.64-24,4.64-29.12,0-39.52-20.48-39.52-40.16,0-22.24,13.44-41.92,37.6-41.92s32.8,18.56,32.8,33.76c0,4.48-.16,8.16-.64,9.92-.16.64-.48.96-1.28,1.12-2.24.48-8.64.64-16.48.64h-32.48ZM211.69,105.77c6.08,0,8.16,0,8.8-.16v-1.28c0-4.64-3.2-14.88-15.36-14.88-11.04,0-16,8.48-17.28,16.32h23.84Z"/>
  <path class="cls-1" d="M64.18,175.69c.96,0,1.44.32,1.76,1.28.8,2.08,1.44,6.08,1.6,9.6,5.44-6.72,14.56-12.48,25.6-12.48.96,0,1.28.16,1.28,1.12v16.96c0,.8-.32,1.12-1.44,1.12-11.36-.32-20.8,3.68-24.48,8.48v51.52c0,.96-.48,1.28-1.44,1.28h-16.64c-1.12,0-1.44-.48-1.44-1.28v-55.2c0-6.88-.16-16.16-.8-21.44,0-.8.16-.96.96-.96h15.04Z"/>
  <path class="cls-1" d="M167.22,236.97c0,8.32.64,13.12.96,16.48.16.8-.32,1.12-1.28,1.12h-14.72c-1.12,0-1.44-.32-1.6-.96-.48-1.6-.96-4-1.12-5.6-6.88,6.4-15.04,8.16-22.24,8.16-15.2,0-26.88-8.16-26.88-30.56v-48.8c0-.96.32-1.12,1.28-1.12h16.8c.96,0,1.12.32,1.12,1.12v46.56c0,9.92,4.32,16,13.92,16,6.08,0,10.56-2.08,14.56-5.76v-56.8c0-.8.32-1.12,1.28-1.12h16.8c.96,0,1.12.32,1.12,1.12v60.16Z"/>
  <path class="cls-1" d="M177.93,194.09c0-5.44-.32-14.08-.64-17.28,0-.8.16-1.12,1.12-1.12h14.56c1.12,0,1.6.32,1.92,1.12.48,1.44.8,3.52,1.12,6.08,6.88-5.76,14.56-8.8,23.2-8.8,12,0,26.72,6.08,26.72,31.68v47.36c0,1.12-.48,1.44-1.28,1.44h-16.64c-.96,0-1.44-.48-1.44-1.44v-45.6c0-10.56-4.48-16.64-13.76-16.64-6.4,0-11.68,2.4-15.52,6.56v55.84c0,.8-.48,1.28-1.28,1.28h-16.8c-.96,0-1.28-.48-1.28-1.28v-59.2Z"/>
  <path class="cls-1" d="M120.98,312.49c0,29.28-23.68,43.68-47.84,43.68-1.76,0-3.36-.16-4.8-.32v28.8c0,.64-.16,1.12-1.12,1.28-5.6.64-16.32,1.6-17.12,1.6-.96,0-1.12-.16-1.12-.96v-95.84c0-1.92-.16-7.2-.48-9.44,0-.16,0-.64.64-.8,7.2-2.4,18.4-6.4,32.32-6.4,26.4,0,39.52,17.92,39.52,38.4ZM68.33,292.17v47.2c1.76.48,4.32.48,6.4.48,12.48,0,26.4-7.36,26.4-26.08,0-14.56-7.84-23.2-21.44-23.2-4.32,0-7.84.48-11.36,1.6Z"/>
  <path class="cls-1" d="M142.73,275.69c.96,0,1.44.32,1.76,1.28.8,2.08,1.44,6.08,1.6,9.6,5.44-6.72,14.56-12.48,25.6-12.48.96,0,1.28.16,1.28,1.12v16.96c0,.8-.32,1.12-1.44,1.12-11.36-.32-20.8,3.68-24.48,8.48v51.52c0,.96-.48,1.28-1.44,1.28h-16.64c-1.12,0-1.44-.48-1.44-1.28v-55.2c0-6.88-.16-16.16-.8-21.44,0-.8.16-.96.96-.96h15.04Z"/>
  <path class="cls-1" d="M250.41,314.73c0,24.8-15.84,41.44-38.4,41.44-26.72,0-38.56-20.64-38.56-40.96,0-22.72,14.88-41.12,38.88-41.12s38.08,18.72,38.08,40.64ZM192.97,314.89c0,14.72,7.2,24.96,19.36,24.96,9.92,0,18.4-8.16,18.4-24.64,0-13.28-5.76-24.96-19.36-24.96-10.72,0-18.4,9.44-18.4,24.64Z"/>
  <path class="cls-1" d="M275.21,275.69c.8,0,1.28.32,1.28,1.12v73.6c0,17.6-2.88,24.16-8,30.56-5.28,6.24-14.72,8.32-21.28,8.32-1.12,0-2.4,0-3.68-.16-.96-.16-1.28-.64-1.28-1.44v-14.08c0-.8.32-1.28,1.12-1.28,8.32,0,13.76-3.04,13.76-16.8v-78.72c0-.8.32-1.12,1.28-1.12h16.8ZM255.85,253.93c0-6.56,4.64-11.04,11.04-11.04,6.88,0,11.04,4.64,11.04,11.04s-4.48,11.04-11.04,11.04-11.04-4.48-11.04-11.04Z"/>
  <path class="cls-1" d="M300.97,319.53c.48,11.2,7.84,20.16,24.16,20.16,7.2,0,13.76-1.28,19.84-3.84.48-.32.96-.16.96.64v13.28c0,.96-.32,1.44-.96,1.76-6.08,2.88-13.12,4.64-24,4.64-29.12,0-39.52-20.48-39.52-40.16,0-22.24,13.44-41.92,37.6-41.92s32.8,18.56,32.8,33.76c0,4.48-.16,8.16-.64,9.92-.16.64-.48.96-1.28,1.12-2.24.48-8.64.64-16.48.64h-32.48ZM324.81,305.77c6.08,0,8.16,0,8.8-.16v-1.28c0-4.64-3.2-14.88-15.36-14.88-11.04,0-16,8.48-17.28,16.32h23.84Z"/>
  <path class="cls-1" d="M416.97,352.33c0,.8-.16,1.12-.8,1.28-5.12,2.08-11.52,2.56-17.76,2.56-25.92,0-41.28-17.76-41.28-40.8s17.6-41.28,44-41.28c8,0,12.32.8,15.04,1.76.64.32.8.8.8,1.76l-.16,14.24c0,1.12-.64,1.12-1.28.96-3.36-1.28-7.52-2.08-13.76-2.08-14.56,0-24.8,8.64-24.8,24,0,17.44,12.64,24.16,24.96,24.16,5.76,0,10.72-.48,13.92-1.6.8-.32,1.12.16,1.12.8v14.24Z"/>
  <path class="cls-1" d="M469.13,352.01c0,.96-.16,1.6-.96,1.92-4.32,1.6-8.32,2.24-13.6,2.24-13.12,0-20.96-6.4-20.96-22.24v-42.08h-10.08c-.8-.16-1.12-.48-1.12-1.44v-13.44c0-.96.32-1.28,1.28-1.28h10.08c.16-5.6.8-15.68,1.6-19.68.16-.8.48-1.28,1.28-1.44l16.16-2.24c.8-.16,1.12,0,1.12.8-.48,5.28-.8,14.72-.8,22.56h15.52c.8,0,1.12.32,1.12,1.12v13.92c0,.8-.32,1.12-1.12,1.12h-15.68v37.92c0,7.04,2.24,10.4,9.12,10.4,2.08,0,3.84-.16,6.08-.64.48-.16.96,0,.96.96v11.52Z"/>
</svg>